<?xml version="1.0" encoding="UTF-8" standalone="no"?>
<!-- Created with Inkscape (http://www.inkscape.org/) -->

<svg
   xmlns:dc="http://purl.org/dc/elements/1.1/"
   xmlns:cc="http://creativecommons.org/ns#"
   xmlns:rdf="http://www.w3.org/1999/02/22-rdf-syntax-ns#"
   xmlns:svg="http://www.w3.org/2000/svg"
   xmlns="http://www.w3.org/2000/svg"
   xmlns:sodipodi="http://sodipodi.sourceforge.net/DTD/sodipodi-0.dtd"
   xmlns:inkscape="http://www.inkscape.org/namespaces/inkscape"
   width="32.515598mm"
   height="23.892668mm"
   viewBox="0 0 32.515598 23.892669"
   version="1.1"
   id="svg8"
   inkscape:version="0.92.3 (2405546, 2018-03-11)"
   sodipodi:docname="drawing.svg">
  <defs
     id="defs2" />
  <sodipodi:namedview
     id="base"
     pagecolor="#ffffff"
     bordercolor="#666666"
     borderopacity="1.0"
     inkscape:pageopacity="0.0"
     inkscape:pageshadow="2"
     inkscape:zoom="1"
     inkscape:cx="182.9428"
     inkscape:cy="-35.256719"
     inkscape:document-units="mm"
     inkscape:current-layer="layer1"
     showgrid="false"
     inkscape:measure-start="0,0"
     inkscape:measure-end="0,0"
     inkscape:window-width="1920"
     inkscape:window-height="1027"
     inkscape:window-x="-8"
     inkscape:window-y="-8"
     inkscape:window-maximized="1"
     fit-margin-top="0"
     fit-margin-left="0"
     fit-margin-right="0"
     fit-margin-bottom="0">
    <inkscape:grid
       type="xygrid"
       id="grid4524"
       originx="-63.075217"
       originy="-194.08274" />
  </sodipodi:namedview>
  <metadata
     id="metadata5">
    <rdf:RDF>
      <cc:Work
         rdf:about="">
        <dc:format>image/svg+xml</dc:format>
        <dc:type
           rdf:resource="http://purl.org/dc/dcmitype/StillImage" />
        <dc:title></dc:title>
      </cc:Work>
    </rdf:RDF>
  </metadata>
  <g
     inkscape:label="Layer 1"
     inkscape:groupmode="layer"
     id="layer1"
     transform="translate(-63.075219,-79.024632)">
    <path
       style="fill:#000000;fill-opacity:1;stroke:none;stroke-width:0.08128951px;stroke-linecap:butt;stroke-linejoin:miter;stroke-opacity:1"
       d="m 63.075219,79.024632 v 17.883851 c 0,0 9.754636,8.2e-5 16.257797,3.251657 6.503159,-3.251575 16.2578,-3.251657 16.2578,-3.251657 V 79.024632 c 0,0 -9.754641,7.2e-5 -16.2578,3.251654 -6.503161,-3.251582 -16.257797,-3.251654 -16.257797,-3.251654 z m 5.065645,5.295388 h 3.137485 c 0.693551,0 1.304943,0.07637 1.834665,0.229276 0.53518,0.147447 0.98327,0.365966 1.343696,0.655405 0.339505,0.268562 0.600264,0.596763 0.784607,0.98287 V 84.32002 h 3.456967 c 1.217809,0 2.12961,0.213003 2.735784,0.638961 0.611637,0.425962 0.917569,1.070483 0.917569,1.933327 0,0.267589 -0.03267,0.529817 -0.09819,0.786486 -0.06007,0.251207 -0.15553,0.483301 -0.286592,0.696281 -0.131067,0.212981 -0.294836,0.401367 -0.491437,0.565195 -0.196599,0.163832 -0.42869,0.291954 -0.696278,0.384787 0.267588,0.04368 0.521297,0.131098 0.761582,0.262164 0.245752,0.125605 0.45875,0.292371 0.638961,0.499891 0.185678,0.202061 0.330362,0.442199 0.434119,0.720712 3.07e-4,0.0011 8.19e-4,0.0024 0.0013,0.0038 l 1.922051,-6.491561 h 2.817535 l 3.170394,10.706328 h -2.22786 l -0.5901,-2.113244 H 83.972019 L 83.365946,95.02642 H 81.36685 l 0.224107,-0.756421 c -0.727537,0.5039 -1.753925,0.756421 -3.081108,0.756421 h -3.268567 v -5.631317 c -0.183873,0.419378 -0.442204,0.787284 -0.776618,1.101739 -0.36589,0.344041 -0.822028,0.611329 -1.368129,0.802458 -0.546103,0.191136 -1.179583,0.286594 -1.900438,0.286594 h -1.023748 v 3.440526 h -2.031492 z m 9.099555,1.597403 v 2.83398 h 1.220134 c 0.32766,0 0.603458,-0.03772 0.82736,-0.114167 0.229361,-0.08192 0.415225,-0.191411 0.557212,-0.327937 0.147448,-0.141987 0.250954,-0.303237 0.311021,-0.48345 0.06554,-0.180215 0.09867,-0.373649 0.09867,-0.581171 0,-0.202063 -0.03313,-0.385396 -0.09867,-0.549226 -0.06554,-0.163829 -0.172031,-0.302992 -0.319479,-0.417675 -0.141987,-0.11468 -0.327378,-0.20209 -0.556739,-0.262161 -0.223906,-0.06553 -0.497177,-0.0982 -0.819375,-0.0982 z m -7.068034,0.07376 v 3.92397 h 1.122407 c 0.349508,0 0.657965,-0.0467 0.925556,-0.139538 0.267589,-0.0983 0.491633,-0.237459 0.671848,-0.417674 0.185677,-0.180214 0.324837,-0.39621 0.417674,-0.647416 0.0983,-0.251207 0.147525,-0.532051 0.147525,-0.843334 0,-0.283974 -0.0467,-0.540683 -0.139539,-0.770042 -0.08738,-0.234829 -0.223543,-0.434255 -0.409217,-0.598086 -0.180214,-0.163832 -0.409778,-0.289422 -0.688291,-0.3768 -0.278512,-0.08738 -0.609056,-0.13108 -0.991329,-0.13108 z m 15.691658,0.294578 -1.409003,4.980608 h 2.801561 z m -8.623624,4.005721 v 3.088625 h 1.408533 c 0.322202,0 0.603518,-0.04117 0.843804,-0.123093 0.245749,-0.08193 0.450699,-0.193939 0.614531,-0.335925 0.16383,-0.147448 0.286422,-0.319269 0.368342,-0.515867 0.08738,-0.196597 0.13108,-0.407074 0.13108,-0.630976 0,-0.464189 -0.174819,-0.82739 -0.524324,-1.08952 -0.344047,-0.262135 -0.87355,-0.393246 -1.588946,-0.393246 z M 65.032508,100.56936 v 1.84358 h 0.42378 v -0.65304 c 0,-0.12086 0.02556,-0.21492 0.07611,-0.28284 0.05055,-0.0687 0.120144,-0.10336 0.208601,-0.10336 0.03633,0 0.06835,0.008 0.09678,0.024 0.02844,0.015 0.05107,0.0363 0.06765,0.0639 0.01265,0.0205 0.02158,0.0524 0.02631,0.0958 0.0055,0.0434 0.0079,0.1235 0.0079,0.2396 v 0.48439 0.13155 h 0.426602 v -0.80809 c 0,-0.17929 -0.04003,-0.31571 -0.119807,-0.40969 -0.07898,-0.0939 -0.194915,-0.14094 -0.348138,-0.14094 -0.08688,0 -0.166328,0.0183 -0.238202,0.0554 -0.07186,0.0364 -0.139927,0.0931 -0.203903,0.17054 v -0.71084 z m 12.799418,0 v 1.84358 h 0.424254 v -0.55344 l 0.517745,0.55344 h 0.513988 l -0.698629,-0.71788 0.647889,-0.6089 h -0.492848 l -0.488145,0.48674 v -1.00354 z m 7.814586,0 v 1.84358 h 0.424252 v -1.84358 z m 0.833939,0 v 0.34626 h 0.424251 v -0.34626 z m 5.075514,0 v 0.34626 h 0.423779 v -0.34626 z m -28.281539,0.0747 v 1.76887 h 0.455728 v -0.61357 h 0.301157 c 0.225098,0 0.397697,-0.0499 0.517747,-0.14941 0.120841,-0.10032 0.181352,-0.24334 0.181352,-0.42895 0,-0.18481 -0.06052,-0.32709 -0.181352,-0.4266 -0.12005,-0.10031 -0.292649,-0.15034 -0.517747,-0.15034 z m 9.392255,0 v 1.76887 h 0.756886 c 0.235363,0 0.41089,-0.0418 0.526203,-0.12543 0.115312,-0.0837 0.172895,-0.21089 0.172895,-0.38149 0,-0.11137 -0.02663,-0.20529 -0.08034,-0.28189 -0.05371,-0.0767 -0.129928,-0.12945 -0.227866,-0.15788 0.0766,-0.0292 0.135433,-0.074 0.175716,-0.13389 0.04028,-0.0608 0.06012,-0.13426 0.06012,-0.22036 0,-0.16348 -0.05526,-0.28235 -0.165847,-0.35659 -0.109784,-0.0742 -0.287148,-0.11134 -0.532782,-0.11134 z m 8.088022,0 -0.654934,1.76887 h 0.45808 l 0.112756,-0.32229 h 0.713193 l 0.111348,0.32229 h 0.458549 l -0.654936,-1.76887 z m 9.679321,0.0652 v 0.37679 H 90.22307 v 0.30305 h 0.210954 v 0.56283 c 0,0.16746 0.03479,0.28632 0.104304,0.35661 0.0703,0.0694 0.189157,0.1043 0.356597,0.1043 h 0.363645 v -0.30351 h -0.218 c -0.07264,0 -0.121158,-0.0106 -0.145645,-0.0319 -0.02449,-0.0221 -0.03714,-0.0638 -0.03714,-0.12545 v -0.56285 h 0.437406 v -0.30304 h -0.437406 v -0.37679 z m -17.311145,0.24526 h 0.252296 c 0.07188,0 0.12638,0.016 0.1635,0.0484 0.03711,0.0316 0.05544,0.0779 0.05544,0.1386 0,0.0617 -0.01831,0.10844 -0.05544,0.14001 -0.03713,0.0316 -0.09163,0.0475 -0.1635,0.0475 h -0.252296 z m -9.392725,0.0201 h 0.252766 c 0.08846,0 0.156664,0.0212 0.204842,0.0639 0.04817,0.0427 0.07235,0.10335 0.07235,0.18228 0,0.079 -0.02417,0.14024 -0.07235,0.18371 -0.04817,0.0426 -0.116383,0.0639 -0.204842,0.0639 h -0.252766 z m 3.663219,0.0794 c -0.229045,0 -0.408421,0.0615 -0.537948,0.18465 -0.128739,0.12321 -0.193098,0.29365 -0.193098,0.51164 0,0.21797 0.06435,0.3889 0.193098,0.5121 0.129527,0.12322 0.308903,0.18465 0.537948,0.18465 0.228256,0 0.406711,-0.0615 0.534661,-0.18465 0.12874,-0.1232 0.193096,-0.29413 0.193096,-0.5121 0,-0.21799 -0.06436,-0.38843 -0.193096,-0.51164 -0.12795,-0.12321 -0.306405,-0.18465 -0.534661,-0.18465 z m 1.902788,0 c -0.08688,0 -0.166327,0.0184 -0.238201,0.0554 -0.07186,0.0364 -0.139928,0.0931 -0.203903,0.17054 v -0.19403 h -0.423782 v 1.32678 h 0.423782 v -0.65306 c 0,-0.12084 0.02555,-0.2149 0.07611,-0.28283 0.05054,-0.0687 0.120143,-0.10335 0.2086,-0.10335 0.03633,0 0.06835,0.008 0.09678,0.024 0.02844,0.015 0.05107,0.0363 0.06765,0.0639 0.01265,0.0206 0.02159,0.0524 0.02631,0.0958 0.0055,0.0436 0.0079,0.12274 0.0079,0.23726 v 0.48674 0.13155 h 0.426601 v -0.8081 c 0,-0.17929 -0.04003,-0.31571 -0.119805,-0.40969 -0.07898,-0.0939 -0.194917,-0.14095 -0.348139,-0.14095 z m 1.499678,0 c -0.229044,0 -0.408717,0.0621 -0.539828,0.18606 -0.130317,0.12401 -0.195916,0.29383 -0.195916,0.51023 0,0.22035 0.06651,0.39203 0.199208,0.51445 0.133476,0.12163 0.320394,0.1823 0.560497,0.1823 0.100309,0 0.200384,-0.009 0.300688,-0.0296 0.100309,-0.0189 0.200853,-0.0471 0.301159,-0.085 v -0.327 c -0.09873,0.0537 -0.194957,0.0938 -0.288944,0.12075 -0.0932,0.026 -0.184658,0.039 -0.273907,0.039 -0.110573,0 -0.196796,-0.0249 -0.258404,-0.0747 -0.06161,-0.0497 -0.09732,-0.12411 -0.107587,-0.22362 h 0.991327 v -0.12122 c 0,-0.21009 -0.06236,-0.37761 -0.187928,-0.50319 -0.124792,-0.12557 -0.291853,-0.1884 -0.500365,-0.1884 z m 4.33131,0 c -0.229045,0 -0.407949,0.0615 -0.537477,0.18465 -0.128741,0.12321 -0.1931,0.29365 -0.1931,0.51164 0,0.21797 0.06436,0.3889 0.1931,0.5121 0.129528,0.12322 0.308432,0.18465 0.537477,0.18465 0.228255,0 0.40671,-0.0615 0.53466,-0.18465 0.12874,-0.1232 0.193096,-0.29413 0.193096,-0.5121 0,-0.21799 -0.06435,-0.38843 -0.193096,-0.51164 -0.12795,-0.12321 -0.306405,-0.18465 -0.53466,-0.18465 z m 1.668347,0 c -0.229046,0 -0.408421,0.0615 -0.53795,0.18465 -0.128738,0.12321 -0.193097,0.29365 -0.193097,0.51164 0,0.21797 0.06437,0.3889 0.193097,0.5121 0.129529,0.12322 0.308904,0.18465 0.53795,0.18465 0.228255,0 0.40624,-0.0615 0.534188,-0.18465 0.12874,-0.1232 0.193099,-0.29413 0.193099,-0.5121 0,-0.21799 -0.06436,-0.38843 -0.193099,-0.51164 -0.127948,-0.12321 -0.305933,-0.18465 -0.534188,-0.18465 z m 6.236445,0 c -0.09241,0 -0.174165,0.0184 -0.245247,0.0554 -0.07108,0.0364 -0.136061,0.0931 -0.194507,0.17054 v -0.19403 h -0.424254 v 1.83137 h 0.424254 v -0.69628 c 0.05845,0.0774 0.123425,0.13441 0.194507,0.1715 0.07108,0.0363 0.15284,0.0545 0.245247,0.0545 0.163492,0 0.297594,-0.0645 0.40264,-0.19404 0.105044,-0.13032 0.157391,-0.29814 0.157391,-0.5027 0,-0.20458 -0.05235,-0.37132 -0.157391,-0.50084 -0.105046,-0.13033 -0.239148,-0.19546 -0.40264,-0.19546 z m 1.738821,0 c -0.09241,0 -0.174167,0.0184 -0.245249,0.0554 -0.07108,0.0364 -0.135591,0.0931 -0.194037,0.17054 v -0.19403 h -0.424253 v 1.83137 h 0.424253 v -0.69628 c 0.05845,0.0774 0.122956,0.13441 0.194037,0.1715 0.07108,0.0363 0.152839,0.0545 0.245249,0.0545 0.163489,0 0.298063,-0.0645 0.403108,-0.19404 0.105046,-0.13032 0.157392,-0.29814 0.157392,-0.5027 0,-0.20458 -0.05235,-0.37132 -0.157392,-0.50084 -0.105045,-0.13033 -0.239619,-0.19546 -0.403108,-0.19546 z m 3.20843,0 c -0.239314,0 -0.426383,0.0615 -0.561443,0.18465 -0.135056,0.12242 -0.202963,0.29285 -0.202963,0.51164 0,0.21877 0.0679,0.38984 0.202963,0.51305 0.13506,0.12241 0.322129,0.1837 0.561443,0.1837 0.06871,0 0.136918,-0.006 0.204842,-0.0188 0.06871,-0.0118 0.136152,-0.03 0.202495,-0.0545 v -0.34718 c -0.05054,0.0386 -0.105821,0.0676 -0.165851,0.0873 -0.05923,0.0198 -0.122054,0.0301 -0.188396,0.0301 -0.118473,0 -0.210853,-0.0346 -0.277197,-0.10336 -0.06556,-0.0696 -0.09819,-0.16636 -0.09819,-0.29036 0,-0.124 0.03264,-0.22022 0.09819,-0.28893 0.06634,-0.0694 0.158724,-0.10429 0.277197,-0.10429 0.06239,0 0.122759,0.009 0.180411,0.0286 0.05845,0.0189 0.116182,0.0478 0.173836,0.0874 v -0.3458 c -0.06713,-0.0245 -0.134571,-0.0427 -0.202495,-0.0544 -0.06714,-0.0127 -0.135341,-0.0188 -0.204842,-0.0188 z m 1.340878,0 c -0.09162,0 -0.18323,0.006 -0.274848,0.0178 -0.09162,0.0111 -0.182609,0.0272 -0.273439,0.0494 v 0.32372 c 0.06714,-0.0363 0.139809,-0.0635 0.217999,-0.0817 0.07818,-0.0183 0.162407,-0.0273 0.253234,-0.0273 0.112152,0 0.194679,0.016 0.247598,0.0475 0.05292,0.0309 0.0794,0.0795 0.0794,0.14659 v 0.0333 h -0.249945 c -0.229048,0 -0.397177,0.0363 -0.504593,0.109 -0.106624,0.0725 -0.159739,0.1869 -0.159739,0.3425 0,0.12795 0.04249,0.23188 0.127792,0.31244 0.08609,0.0797 0.198027,0.11981 0.335454,0.11981 0.101888,0 0.188259,-0.0183 0.259342,-0.0546 0.07109,-0.0372 0.134823,-0.096 0.191689,-0.17665 v 0.19685 h 0.428011 v -0.75688 c 0,-0.21246 -0.05359,-0.36598 -0.160212,-0.45996 -0.105835,-0.0948 -0.278434,-0.1419 -0.517744,-0.1419 z m 3.701272,0 c -0.229046,0 -0.408416,0.0615 -0.537948,0.18465 -0.128735,0.12321 -0.193095,0.29365 -0.193095,0.51164 0,0.21797 0.06438,0.3889 0.193095,0.5121 0.129532,0.12322 0.308902,0.18465 0.537948,0.18465 0.228257,0 0.406245,-0.0615 0.534189,-0.18465 0.128746,-0.1232 0.193102,-0.29413 0.193102,-0.5121 0,-0.21799 -0.06435,-0.38843 -0.193102,-0.51164 -0.127944,-0.12321 -0.305932,-0.18465 -0.534189,-0.18465 z m 1.902788,0 c -0.08687,0 -0.166332,0.0184 -0.238196,0.0554 -0.0718,0.0364 -0.139929,0.0931 -0.203909,0.17054 v -0.19403 h -0.424249 v 1.32678 h 0.424249 v -0.65306 c 0,-0.12084 0.02505,-0.2149 0.07565,-0.28283 0.05051,-0.0687 0.12015,-0.10335 0.208609,-0.10335 0.03635,0 0.06885,0.008 0.09725,0.024 0.02841,0.015 0.05109,0.0363 0.06762,0.0639 0.01269,0.0206 0.02112,0.0524 0.02579,0.0958 0.0049,0.0436 0.0085,0.12274 0.0085,0.23726 v 0.48674 0.13155 h 0.426607 v -0.8081 c 0,-0.17929 -0.04003,-0.31571 -0.119806,-0.40969 -0.079,-0.0939 -0.19492,-0.14095 -0.348144,-0.14095 z m -13.896928,0.004 0.241488,0.70379 h -0.484388 z m 5.453249,0.0273 v 1.32678 h 0.424251 v -1.32678 z m 5.075514,0 v 1.32678 h 0.423779 v -1.32678 z m -20.762474,0.24995 c 0.07582,0 0.137105,0.025 0.183701,0.0747 0.04739,0.049 0.07095,0.11347 0.07095,0.19405 h -0.550637 c 0.01264,-0.0869 0.0445,-0.15293 0.09584,-0.19875 0.05134,-0.0467 0.118003,-0.07 0.200144,-0.07 z m -3.400118,0.0212 c 0.09241,2e-5 0.163394,0.034 0.212363,0.10199 0.04897,0.067 0.07329,0.16414 0.07329,0.29131 0,0.12715 -0.02432,0.22477 -0.07329,0.29269 -0.04896,0.0671 -0.119953,0.10104 -0.212363,0.10104 -0.09399,0 -0.165893,-0.0339 -0.215649,-0.10104 -0.04896,-0.0679 -0.0733,-0.16554 -0.0733,-0.29269 0,-0.12717 0.02432,-0.22416 0.0733,-0.29131 0.04977,-0.0679 0.121661,-0.10199 0.215649,-0.10199 z m 7.733776,0 c 0.09241,2e-5 0.163393,0.034 0.212362,0.10199 0.04896,0.067 0.07329,0.16414 0.07329,0.29131 0,0.12715 -0.02432,0.22477 -0.07329,0.29269 -0.04896,0.0671 -0.119956,0.10104 -0.212362,0.10104 -0.09399,0 -0.165894,-0.0339 -0.215648,-0.10104 -0.04897,-0.0679 -0.0733,-0.16554 -0.0733,-0.29269 0,-0.12717 0.02432,-0.22416 0.0733,-0.29131 0.04977,-0.0679 0.121662,-0.10199 0.215648,-0.10199 z m 1.668347,0 c 0.09241,2e-5 0.162922,0.034 0.211889,0.10199 0.04897,0.067 0.07376,0.16414 0.07376,0.29131 0,0.12715 -0.02479,0.22477 -0.07376,0.29269 -0.04896,0.0671 -0.119482,0.10104 -0.211889,0.10104 -0.09399,0 -0.165895,-0.0339 -0.215649,-0.10104 -0.04897,-0.0679 -0.0733,-0.16554 -0.0733,-0.29269 0,-0.12717 0.02433,-0.22416 0.0733,-0.29131 0.04977,-0.0679 0.121661,-0.10199 0.215649,-0.10199 z m 16.225846,0 c 0.09241,2e-5 0.162928,0.034 0.211889,0.10199 0.04897,0.067 0.07376,0.16414 0.07376,0.29131 0,0.12715 -0.02479,0.22477 -0.07376,0.29269 -0.04897,0.0671 -0.119476,0.10104 -0.211889,0.10104 -0.09398,0 -0.165891,-0.0339 -0.215648,-0.10104 -0.04897,-0.0679 -0.07331,-0.16554 -0.07331,-0.29269 0,-0.12717 0.02434,-0.22416 0.07331,-0.29131 0.04979,-0.0679 0.121664,-0.10199 0.215648,-0.10199 z m -10.147261,0.004 c 0.09083,0 0.160275,0.0332 0.207662,0.0996 0.04817,0.0664 0.07189,0.16257 0.07189,0.28895 0,0.12637 -0.02371,0.22306 -0.07189,0.28941 -0.04739,0.0663 -0.116833,0.0992 -0.207662,0.0992 -0.09083,0 -0.160574,-0.0328 -0.209541,-0.0992 -0.04817,-0.0671 -0.07235,-0.16384 -0.07235,-0.28941 0,-0.12558 0.02417,-0.2212 0.07235,-0.28753 0.04896,-0.067 0.118714,-0.10105 0.209541,-0.10105 z m 1.739289,0 c 0.09083,0 0.159807,0.0332 0.207192,0.0996 0.04817,0.0664 0.07235,0.16257 0.07235,0.28895 0,0.12637 -0.02417,0.22306 -0.07235,0.28941 -0.04739,0.0663 -0.116363,0.0992 -0.207192,0.0992 -0.09083,0 -0.160575,-0.0328 -0.209541,-0.0992 -0.04817,-0.0671 -0.07235,-0.16384 -0.07235,-0.28941 0,-0.12558 0.02418,-0.2212 0.07235,-0.28753 0.04897,-0.067 0.118713,-0.10105 0.209541,-0.10105 z m -11.490491,0.27719 h 0.2678 c 0.09241,0 0.161382,0.0196 0.207193,0.0583 0.04581,0.0379 0.0686,0.0953 0.0686,0.17195 0,0.0781 -0.0234,0.13652 -0.07001,0.17526 -0.04581,0.0386 -0.114165,0.0578 -0.205784,0.0578 h -0.2678 z m 16.226788,0.17667 h 0.22035 v 0.0483 c 0,0.0861 -0.02726,0.15802 -0.08175,0.21566 -0.0545,0.0568 -0.121315,0.0855 -0.201085,0.0855 -0.06398,0 -0.114014,-0.0151 -0.150345,-0.0451 -0.03555,-0.0309 -0.05356,-0.0733 -0.05356,-0.12686 0,-0.0585 0.02201,-0.10251 0.06624,-0.13249 0.04502,-0.03 0.111688,-0.0451 0.200145,-0.0451 z"
       id="path4528"
       inkscape:connector-curvature="0" />
  </g>
</svg>
